# xmcd
# 
# Track frame offsets:
#     150
#     16178
#     27289
#     44329
#     57388
#     80291
#     95697
#     115174
#     132493
#     146452
#     158603
#     173809
#     188256
#     211372
#     223071
# 
# Disc length: 3163
# 
# Revision: 1
# Processed by: cddbd v1.5.2PL0 Copyright (c) Steve Scherf et al.
# Submitted via: fre:ac v1.1beta1pre5
# 
DISCID=c70c590f
DTITLE=Nikki Yanofsky - NIKKI
DYEAR=2011
DGENRE=Jazz
TTITLE0=Take The ``A`` Train
TTITLE1=Never Make It On Time
TTITLE2=I Got Rhythm
TTITLE3=For Another Day
TTITLE4=God Bless The Child
TTITLE5=Cool My Heels
TTITLE6=You`ll Have To Swing It (Mr. Paganini)
TTITLE7=Bienvenue Dans Ma Vie
TTITLE8=First Lady
TTITLE9=On The Sunny Side of The Street - Fool In The Rain
TTITLE10=Grey Skies
TTITLE11=Try Try Try
TTITLE12=Over The Rainbow
TTITLE13=Plus Je t'embrasse - Bonus
TTITLE14=It's A Small World (After All) - Bonus
EXTD=YEAR: 2011
EXTT0=
EXTT1=
EXTT2=
EXTT3=
EXTT4=
EXTT5=
EXTT6=
EXTT7=
EXTT8=
EXTT9=
EXTT10=
EXTT11=
EXTT12=
EXTT13=
EXTT14=
PLAYORDER=
